<?xml version="1.0" encoding="UTF-8"?>
<!DOCTYPE svg PUBLIC "-//W3C//DTD SVG 1.1//EN" "http://www.w3.org/Graphics/SVG/1.1/DTD/svg11.dtd">
<!-- Creator: CorelDRAW X8 -->
<svg xmlns="http://www.w3.org/2000/svg" xml:space="preserve" width="962px" height="188px" version="1.1" style="shape-rendering:geometricPrecision; text-rendering:geometricPrecision; image-rendering:optimizeQuality; fill-rule:evenodd; clip-rule:evenodd"
viewBox="0 0 962 187"
 xmlns:xlink="http://www.w3.org/1999/xlink">
 <defs>
  <style type="text/css">
   <![CDATA[
    .fil1 {fill:#f04800;fill-rule:nonzero}
    .fil0 {fill:black;fill-rule:nonzero}
   ]]>
  </style>
 </defs>
 <g id="Слой_x0020_1">
  <metadata id="CorelCorpID_0Corel-Layer"/>
  <path class="fil0" d="M212 186l-33 0 0 -185 33 0 0 88 74 -88 39 0 -77 86 82 99 -42 0 -76 -95 0 95zm149 0l-33 0 79 -186 29 0 79 186 -35 0 -20 -47 -80 0 -19 47zm87 -78l-28 -66 -27 66 55 0zm89 78l0 -185c18,0 36,-1 54,-1 43,0 62,18 62,46 0,20 -9,34 -27,42l0 1c19,5 33,19 33,43 0,37 -28,55 -70,55 -22,0 -40,0 -52,-1zm56 -79l-23 0 0 49c8,0 15,1 22,1 22,0 34,-9 34,-27 0,-15 -12,-23 -33,-23zm-2 -77c-8,0 -15,1 -21,1l0 47 22 0c17,0 28,-8 28,-24 0,-15 -11,-24 -29,-24zm217 156l0 -30 -78 0 0 -48 67 0 0 -31 -67 0 0 -46 75 0 0 -30 -108 0 0 185 111 0zm137 0l17 0 0 -30 -17 0 0 30zm-17 0l-83 0 0 -185 33 0 0 155 50 0 0 30z"/>
  <path class="fil1" d="M117 187l-117 0 0 -22 103 -134 -66 0 0 -31 110 0 0 23 -103 134 73 0 0 30zm16 0l0 -30 17 0 0 30 -17 0zm-112 -156l-16 0 0 -31 16 0 0 31z"/>
 </g>
</svg>
